# xmcd
#
# Track frame offsets:
#	150
#	13301
#	27456
#	38972
#	51743
#	64607
#	78286
#	87167
#	103724
#	115970
#	130169
#	138693
#	153353
#	169324
#	176159
#	191339
#	201899
#	215527
#	225094
#	235857
#
# Disc length: 3281 seconds
#
# Revision: 1
# Processed by: cddbd v1.5.1PL2 Copyright (c) Steve Scherf et al.
# Submitted via: audiograbber 1.82.02
#
DISCID=1a0ccf14
DTITLE=Various Artist - Country-Hits 100 CD5
DYEAR=1900
DGENRE=Country
TTITLE0=Gordon Lightfoot - Long way back home
TTITLE1=Conway Twitty - You've never been this far before
TTITLE2=The Kendalls - Heaven's just a sin away
TTITLE3=The Oak Ridge Boys - Thank god I'm reborn
TTITLE4=The Jordanaires - Love lifted me
TTITLE5=Mel McDaniel - Baby's got her blue jean on
TTITLE6=Sandy Posey - Born a woman
TTITLE7=Lee Greenwood - Ring on her finger, time on her hands
TTITLE8=Merle Haggard - Everybody's had the blues
TTITLE9=T. Graham Brown - Hell an high water
TTITLE10=Roger Miller - England swings
TTITLE11=David Allan Coe - Standing too close to the flame
TTITLE12=Roger Davis and Honky Tonk Union - I never thought abour it
TTITLE13=Waylon Jennings - It's so easy (to fall in love)
TTITLE14=Sammy's Saloon - Highway calling
TTITLE15=Gene Simmons - Way down yonder in baton rouge
TTITLE16=Eddy Raven - Rip rap road
TTITLE17=Johnny Rodriguez - Ridin' my thumb to Mexico
TTITLE18=Billy Walker - The highway man
TTITLE19=Jimmy Dean - Gotta travel on
EXTD=
EXTT0=
EXTT1=
EXTT2=
EXTT3=
EXTT4=
EXTT5=
EXTT6=
EXTT7=
EXTT8=
EXTT9=
EXTT10=
EXTT11=
EXTT12=
EXTT13=
EXTT14=
EXTT15=
EXTT16=
EXTT17=
EXTT18=
EXTT19=
PLAYORDER=
